<mxfile host="app.diagrams.net" modified="2023-04-01T04:00:30.485Z" agent="Mozilla/5.0 (Macintosh; Intel Mac OS X 10_15_7) AppleWebKit/537.36 (KHTML, like Gecko) Chrome/111.0.0.0 Safari/537.36" etag="g84j7deNhElCK3TzHZHR" version="21.1.2" type="github">
  <diagram name="第 1 页" id="Lc7GdLcL6dpDA9fuwHsS">
    <mxGraphModel dx="937" dy="618" grid="1" gridSize="10" guides="1" tooltips="1" connect="1" arrows="1" fold="1" page="1" pageScale="1" pageWidth="827" pageHeight="1169" math="0" shadow="0">
      <root>
        <mxCell id="0" />
        <mxCell id="1" parent="0" />
        <mxCell id="zrga9KM7A3QgOpkUhyr_-3" value="" style="rounded=0;whiteSpace=wrap;html=1;" vertex="1" parent="1">
          <mxGeometry x="160" y="380" width="450" height="130" as="geometry" />
        </mxCell>
        <mxCell id="zrga9KM7A3QgOpkUhyr_-6" style="edgeStyle=orthogonalEdgeStyle;rounded=0;orthogonalLoop=1;jettySize=auto;html=1;entryX=0;entryY=0.5;entryDx=0;entryDy=0;exitX=0.5;exitY=1;exitDx=0;exitDy=0;" edge="1" parent="1" source="zrga9KM7A3QgOpkUhyr_-1" target="zrga9KM7A3QgOpkUhyr_-4">
          <mxGeometry relative="1" as="geometry" />
        </mxCell>
        <mxCell id="zrga9KM7A3QgOpkUhyr_-1" value="&lt;font face=&quot;Comic Sans MS&quot; style=&quot;font-size: 24px;&quot;&gt;进程1&lt;/font&gt;" style="rounded=0;whiteSpace=wrap;html=1;" vertex="1" parent="1">
          <mxGeometry x="160" y="245" width="120" height="60" as="geometry" />
        </mxCell>
        <mxCell id="zrga9KM7A3QgOpkUhyr_-2" value="&lt;font face=&quot;Comic Sans MS&quot; style=&quot;font-size: 24px;&quot;&gt;进程2&lt;/font&gt;" style="rounded=0;whiteSpace=wrap;html=1;" vertex="1" parent="1">
          <mxGeometry x="490" y="245" width="120" height="60" as="geometry" />
        </mxCell>
        <mxCell id="zrga9KM7A3QgOpkUhyr_-8" style="edgeStyle=orthogonalEdgeStyle;rounded=0;orthogonalLoop=1;jettySize=auto;html=1;entryX=0.5;entryY=1;entryDx=0;entryDy=0;" edge="1" parent="1" source="zrga9KM7A3QgOpkUhyr_-4" target="zrga9KM7A3QgOpkUhyr_-2">
          <mxGeometry relative="1" as="geometry" />
        </mxCell>
        <mxCell id="zrga9KM7A3QgOpkUhyr_-4" value="&lt;font face=&quot;Comic Sans MS&quot; style=&quot;font-size: 24px;&quot;&gt;管道&lt;/font&gt;" style="rounded=0;whiteSpace=wrap;html=1;" vertex="1" parent="1">
          <mxGeometry x="302.5" y="440" width="165" height="35" as="geometry" />
        </mxCell>
        <mxCell id="zrga9KM7A3QgOpkUhyr_-5" value="&lt;font style=&quot;font-size: 24px;&quot;&gt;内核&lt;/font&gt;" style="text;html=1;strokeColor=none;fillColor=none;align=center;verticalAlign=middle;whiteSpace=wrap;rounded=0;" vertex="1" parent="1">
          <mxGeometry x="345" y="390" width="80" height="30" as="geometry" />
        </mxCell>
      </root>
    </mxGraphModel>
  </diagram>
</mxfile>
